<mxfile host="app.diagrams.net" modified="2023-10-28T12:10:56.307Z" agent="Mozilla/5.0 (X11; Linux x86_64; rv:109.0) Gecko/20100101 Firefox/117.0" etag="f_xrVcJY5aWfMmGRvEhr" version="22.0.8" type="device">
  <diagram name="Seite-1" id="ZFgblI9Nb3YeK7t61-ce">
    <mxGraphModel dx="1793" dy="1143" grid="1" gridSize="10" guides="1" tooltips="1" connect="1" arrows="1" fold="1" page="1" pageScale="1" pageWidth="827" pageHeight="1169" math="0" shadow="0">
      <root>
        <mxCell id="0" />
        <mxCell id="1" parent="0" />
        <mxCell id="YDLMvu5zbQ99pKqowtB9-1" value="&lt;div&gt;User&lt;/div&gt;" style="swimlane;childLayout=stackLayout;horizontal=1;startSize=50;horizontalStack=0;rounded=1;fontSize=14;fontStyle=0;strokeWidth=2;resizeParent=0;resizeLast=1;shadow=0;dashed=0;align=center;arcSize=4;whiteSpace=wrap;html=1;" vertex="1" parent="1">
          <mxGeometry x="100" y="395" width="230" height="150" as="geometry" />
        </mxCell>
        <mxCell id="YDLMvu5zbQ99pKqowtB9-2" value="&lt;div&gt;id&lt;/div&gt;&lt;div&gt;email&lt;/div&gt;&lt;div&gt;pwHash&lt;/div&gt;&lt;div&gt;displayName&lt;br&gt;&lt;/div&gt;&lt;div&gt;state (AUTO_CREATED, REGISTERED)&lt;br&gt;&lt;/div&gt;" style="align=left;strokeColor=none;fillColor=none;spacingLeft=4;fontSize=12;verticalAlign=top;resizable=0;rotatable=0;part=1;html=1;" vertex="1" parent="YDLMvu5zbQ99pKqowtB9-1">
          <mxGeometry y="50" width="230" height="100" as="geometry" />
        </mxCell>
        <mxCell id="YDLMvu5zbQ99pKqowtB9-3" value="&lt;div&gt;Event&lt;/div&gt;" style="swimlane;childLayout=stackLayout;horizontal=1;startSize=50;horizontalStack=0;rounded=1;fontSize=14;fontStyle=0;strokeWidth=2;resizeParent=0;resizeLast=1;shadow=0;dashed=0;align=center;arcSize=4;whiteSpace=wrap;html=1;" vertex="1" parent="1">
          <mxGeometry x="850" y="385" width="210" height="160" as="geometry" />
        </mxCell>
        <mxCell id="YDLMvu5zbQ99pKqowtB9-4" value="&lt;div&gt;id&lt;/div&gt;&lt;div&gt;state (PLANNED, ONGOING, PAST)&lt;/div&gt;&lt;div&gt;description&lt;br&gt;&lt;/div&gt;&lt;div&gt;startDateTime&lt;/div&gt;&lt;div&gt;duration&lt;br&gt;&lt;/div&gt;&lt;div&gt;displayName&lt;/div&gt;&lt;div&gt;ownerid&lt;br&gt;&lt;/div&gt;&lt;div&gt;&lt;br&gt;&lt;/div&gt;" style="align=left;strokeColor=none;fillColor=none;spacingLeft=4;fontSize=12;verticalAlign=top;resizable=0;rotatable=0;part=1;html=1;" vertex="1" parent="YDLMvu5zbQ99pKqowtB9-3">
          <mxGeometry y="50" width="210" height="110" as="geometry" />
        </mxCell>
        <mxCell id="YDLMvu5zbQ99pKqowtB9-5" value="Participation" style="swimlane;childLayout=stackLayout;horizontal=1;startSize=50;horizontalStack=0;rounded=1;fontSize=14;fontStyle=0;strokeWidth=2;resizeParent=0;resizeLast=1;shadow=0;dashed=0;align=center;arcSize=4;whiteSpace=wrap;html=1;" vertex="1" parent="1">
          <mxGeometry x="510" y="360" width="160" height="120" as="geometry" />
        </mxCell>
        <mxCell id="YDLMvu5zbQ99pKqowtB9-6" value="&lt;div&gt;userId&lt;/div&gt;&lt;div&gt;eventId&lt;br&gt;&lt;/div&gt;" style="align=left;strokeColor=none;fillColor=none;spacingLeft=4;fontSize=12;verticalAlign=top;resizable=0;rotatable=0;part=1;html=1;" vertex="1" parent="YDLMvu5zbQ99pKqowtB9-5">
          <mxGeometry y="50" width="160" height="70" as="geometry" />
        </mxCell>
        <mxCell id="YDLMvu5zbQ99pKqowtB9-7" value="" style="edgeStyle=entityRelationEdgeStyle;fontSize=12;html=1;endArrow=ERoneToMany;rounded=0;exitX=0;exitY=0.25;exitDx=0;exitDy=0;entryX=1;entryY=0.614;entryDx=0;entryDy=0;entryPerimeter=0;" edge="1" parent="1" source="YDLMvu5zbQ99pKqowtB9-4" target="YDLMvu5zbQ99pKqowtB9-6">
          <mxGeometry width="100" height="100" relative="1" as="geometry">
            <mxPoint x="820" y="560" as="sourcePoint" />
            <mxPoint x="810" y="540" as="targetPoint" />
          </mxGeometry>
        </mxCell>
        <mxCell id="YDLMvu5zbQ99pKqowtB9-8" value="" style="edgeStyle=entityRelationEdgeStyle;fontSize=12;html=1;endArrow=ERoneToMany;rounded=0;exitX=1;exitY=0.25;exitDx=0;exitDy=0;entryX=0;entryY=0.5;entryDx=0;entryDy=0;" edge="1" parent="1" source="YDLMvu5zbQ99pKqowtB9-2" target="YDLMvu5zbQ99pKqowtB9-6">
          <mxGeometry width="100" height="100" relative="1" as="geometry">
            <mxPoint x="430" y="480" as="sourcePoint" />
            <mxPoint x="920" y="460" as="targetPoint" />
          </mxGeometry>
        </mxCell>
        <mxCell id="YDLMvu5zbQ99pKqowtB9-9" value="&lt;div&gt;MediaItem&lt;/div&gt;" style="swimlane;childLayout=stackLayout;horizontal=1;startSize=50;horizontalStack=0;rounded=1;fontSize=14;fontStyle=0;strokeWidth=2;resizeParent=0;resizeLast=1;shadow=0;dashed=0;align=center;arcSize=4;whiteSpace=wrap;html=1;" vertex="1" parent="1">
          <mxGeometry x="1230" y="410" width="160" height="140" as="geometry" />
        </mxCell>
        <mxCell id="YDLMvu5zbQ99pKqowtB9-10" value="&lt;div&gt;id&lt;/div&gt;&lt;div&gt;date&lt;/div&gt;&lt;div&gt;eventId&lt;/div&gt;&lt;div&gt;hash&lt;/div&gt;&lt;div&gt;creatorId&lt;/div&gt;" style="align=left;strokeColor=none;fillColor=none;spacingLeft=4;fontSize=12;verticalAlign=top;resizable=0;rotatable=0;part=1;html=1;" vertex="1" parent="YDLMvu5zbQ99pKqowtB9-9">
          <mxGeometry y="50" width="160" height="90" as="geometry" />
        </mxCell>
        <mxCell id="YDLMvu5zbQ99pKqowtB9-11" value="" style="edgeStyle=entityRelationEdgeStyle;fontSize=12;html=1;endArrow=ERoneToMany;rounded=0;entryX=0;entryY=0.25;entryDx=0;entryDy=0;exitX=1;exitY=0.5;exitDx=0;exitDy=0;" edge="1" parent="1" source="YDLMvu5zbQ99pKqowtB9-4" target="YDLMvu5zbQ99pKqowtB9-10">
          <mxGeometry width="100" height="100" relative="1" as="geometry">
            <mxPoint x="960" y="570" as="sourcePoint" />
            <mxPoint x="920" y="640" as="targetPoint" />
          </mxGeometry>
        </mxCell>
        <mxCell id="YDLMvu5zbQ99pKqowtB9-12" value="Login" style="swimlane;childLayout=stackLayout;horizontal=1;startSize=50;horizontalStack=0;rounded=1;fontSize=14;fontStyle=0;strokeWidth=2;resizeParent=0;resizeLast=1;shadow=0;dashed=0;align=center;arcSize=4;whiteSpace=wrap;html=1;" vertex="1" parent="1">
          <mxGeometry x="140" y="190" width="160" height="120" as="geometry" />
        </mxCell>
        <mxCell id="YDLMvu5zbQ99pKqowtB9-13" value="&lt;div&gt;id&lt;/div&gt;&lt;div&gt;token&lt;/div&gt;&lt;div&gt;date&lt;/div&gt;&lt;div&gt;&lt;br&gt;&lt;/div&gt;" style="align=left;strokeColor=none;fillColor=none;spacingLeft=4;fontSize=12;verticalAlign=top;resizable=0;rotatable=0;part=1;html=1;" vertex="1" parent="YDLMvu5zbQ99pKqowtB9-12">
          <mxGeometry y="50" width="160" height="70" as="geometry" />
        </mxCell>
        <mxCell id="YDLMvu5zbQ99pKqowtB9-14" value="" style="edgeStyle=entityRelationEdgeStyle;fontSize=12;html=1;endArrow=ERoneToMany;rounded=0;exitX=0.5;exitY=0;exitDx=0;exitDy=0;entryX=0.5;entryY=1;entryDx=0;entryDy=0;" edge="1" parent="1" source="YDLMvu5zbQ99pKqowtB9-1" target="YDLMvu5zbQ99pKqowtB9-12">
          <mxGeometry width="100" height="100" relative="1" as="geometry">
            <mxPoint x="400" y="420" as="sourcePoint" />
            <mxPoint x="500" y="320" as="targetPoint" />
            <Array as="points">
              <mxPoint x="560" y="350" />
              <mxPoint x="530" y="350" />
            </Array>
          </mxGeometry>
        </mxCell>
        <mxCell id="YDLMvu5zbQ99pKqowtB9-15" value="" style="edgeStyle=entityRelationEdgeStyle;fontSize=12;html=1;endArrow=ERoneToMany;rounded=0;exitX=1;exitY=0.75;exitDx=0;exitDy=0;entryX=0;entryY=0.75;entryDx=0;entryDy=0;" edge="1" parent="1" source="YDLMvu5zbQ99pKqowtB9-2" target="YDLMvu5zbQ99pKqowtB9-4">
          <mxGeometry width="100" height="100" relative="1" as="geometry">
            <mxPoint x="750" y="570" as="sourcePoint" />
            <mxPoint x="850" y="470" as="targetPoint" />
          </mxGeometry>
        </mxCell>
        <mxCell id="YDLMvu5zbQ99pKqowtB9-16" value="&lt;div&gt;owns&lt;/div&gt;" style="edgeLabel;html=1;align=center;verticalAlign=middle;resizable=0;points=[];" vertex="1" connectable="0" parent="YDLMvu5zbQ99pKqowtB9-15">
          <mxGeometry x="0.1273" y="3" relative="1" as="geometry">
            <mxPoint as="offset" />
          </mxGeometry>
        </mxCell>
        <mxCell id="YDLMvu5zbQ99pKqowtB9-17" value="Comment" style="swimlane;childLayout=stackLayout;horizontal=1;startSize=50;horizontalStack=0;rounded=1;fontSize=14;fontStyle=0;strokeWidth=2;resizeParent=0;resizeLast=1;shadow=0;dashed=0;align=center;arcSize=4;whiteSpace=wrap;html=1;" vertex="1" parent="1">
          <mxGeometry x="1470" y="600" width="160" height="140" as="geometry" />
        </mxCell>
        <mxCell id="YDLMvu5zbQ99pKqowtB9-18" value="&lt;div&gt;id&lt;/div&gt;&lt;div&gt;authorId&lt;/div&gt;&lt;div&gt;content&lt;/div&gt;&lt;div&gt;dateTime&lt;/div&gt;&lt;div&gt;eventId&lt;br&gt;&lt;/div&gt;" style="align=left;strokeColor=none;fillColor=none;spacingLeft=4;fontSize=12;verticalAlign=top;resizable=0;rotatable=0;part=1;html=1;" vertex="1" parent="YDLMvu5zbQ99pKqowtB9-17">
          <mxGeometry y="50" width="160" height="90" as="geometry" />
        </mxCell>
        <mxCell id="YDLMvu5zbQ99pKqowtB9-19" value="" style="edgeStyle=entityRelationEdgeStyle;fontSize=12;html=1;endArrow=ERoneToMany;rounded=0;exitX=0.75;exitY=1;exitDx=0;exitDy=0;entryX=0;entryY=0.25;entryDx=0;entryDy=0;" edge="1" parent="1" source="YDLMvu5zbQ99pKqowtB9-4" target="YDLMvu5zbQ99pKqowtB9-17">
          <mxGeometry width="100" height="100" relative="1" as="geometry">
            <mxPoint x="1510" y="550" as="sourcePoint" />
            <mxPoint x="1610" y="450" as="targetPoint" />
          </mxGeometry>
        </mxCell>
        <mxCell id="YDLMvu5zbQ99pKqowtB9-20" value="" style="edgeStyle=entityRelationEdgeStyle;fontSize=12;html=1;endArrow=ERoneToMany;rounded=0;exitX=0.75;exitY=1;exitDx=0;exitDy=0;entryX=0;entryY=0.5;entryDx=0;entryDy=0;" edge="1" parent="1" source="YDLMvu5zbQ99pKqowtB9-2" target="YDLMvu5zbQ99pKqowtB9-18">
          <mxGeometry width="100" height="100" relative="1" as="geometry">
            <mxPoint x="550" y="670" as="sourcePoint" />
            <mxPoint x="1010" y="680" as="targetPoint" />
          </mxGeometry>
        </mxCell>
        <mxCell id="YDLMvu5zbQ99pKqowtB9-21" value="Favorite" style="swimlane;childLayout=stackLayout;horizontal=1;startSize=50;horizontalStack=0;rounded=1;fontSize=14;fontStyle=0;strokeWidth=2;resizeParent=0;resizeLast=1;shadow=0;dashed=0;align=center;arcSize=4;whiteSpace=wrap;html=1;" vertex="1" parent="1">
          <mxGeometry x="690" y="700" width="160" height="120" as="geometry" />
        </mxCell>
        <mxCell id="YDLMvu5zbQ99pKqowtB9-22" value="&lt;div&gt;id&lt;/div&gt;&lt;div&gt;userId&lt;/div&gt;&lt;div&gt;mediaItemId&lt;/div&gt;&lt;div&gt;dateTime&lt;br&gt;&lt;/div&gt;" style="align=left;strokeColor=none;fillColor=none;spacingLeft=4;fontSize=12;verticalAlign=top;resizable=0;rotatable=0;part=1;html=1;" vertex="1" parent="YDLMvu5zbQ99pKqowtB9-21">
          <mxGeometry y="50" width="160" height="70" as="geometry" />
        </mxCell>
        <mxCell id="YDLMvu5zbQ99pKqowtB9-23" value="" style="edgeStyle=entityRelationEdgeStyle;fontSize=12;html=1;endArrow=ERoneToMany;rounded=0;exitX=0.5;exitY=1;exitDx=0;exitDy=0;entryX=0;entryY=0.25;entryDx=0;entryDy=0;" edge="1" parent="1" source="YDLMvu5zbQ99pKqowtB9-2" target="YDLMvu5zbQ99pKqowtB9-22">
          <mxGeometry width="100" height="100" relative="1" as="geometry">
            <mxPoint x="750" y="560" as="sourcePoint" />
            <mxPoint x="850" y="460" as="targetPoint" />
          </mxGeometry>
        </mxCell>
        <mxCell id="YDLMvu5zbQ99pKqowtB9-24" value="" style="edgeStyle=entityRelationEdgeStyle;fontSize=12;html=1;endArrow=ERoneToMany;rounded=0;entryX=1;entryY=0.25;entryDx=0;entryDy=0;exitX=0.5;exitY=1;exitDx=0;exitDy=0;" edge="1" parent="1" source="YDLMvu5zbQ99pKqowtB9-10" target="YDLMvu5zbQ99pKqowtB9-22">
          <mxGeometry width="100" height="100" relative="1" as="geometry">
            <mxPoint x="1050" y="580" as="sourcePoint" />
            <mxPoint x="850" y="460" as="targetPoint" />
          </mxGeometry>
        </mxCell>
      </root>
    </mxGraphModel>
  </diagram>
</mxfile>
